<?xml version="1.0" encoding="UTF-8"?>
<svg width="400" height="200" version="1.1" xmlns="http://www.w3.org/2000/svg">
 <path d="m394.8 179.79-0.54183 0.8522c-0.67861-0.4261-1.3625-0.63652-2.0779-0.63652-0.98371 0-1.6308 0.41032-1.6308 1.0889 0 0.36824 0.23672 0.67861 0.7049 0.85747 0.19464 0.0999 0.27355 0.14729 0.64178 0.23146l1.0311 0.2788c0.5997 0.13152 1.1889 0.44189 1.5466 0.76804 0.33141 0.34193 0.52605 0.85746 0.52605 1.3677 0 0.79433-0.47345 1.5466-1.2362 1.9779-0.52079 0.29459-1.1731 0.44715-1.9306 0.44715-1.0048 0-1.9937-0.25777-2.8196-0.71543l0.47344-0.91533c0.81012 0.43662 1.5729 0.64178 2.4093 0.64178 0.5471 0 0.90481-0.0789 1.2257-0.28406 0.39454-0.22621 0.58918-0.55762 0.58918-0.95741 0-0.5997-0.42084-0.98372-1.4519-1.2467l-1.1363-0.30511c-1.1205-0.26303-1.8306-1.0468-1.8306-1.9516 0-1.3256 1.1836-2.2568 2.8196-2.2568 0.99424 0 2.0253 0.2788 2.6881 0.75751m-14.5-0.5342h4.7555l-0.15782 0.98371h-3.4351v2.1621h2.867v0.97845h-2.8512v2.4514h3.7034v1.0153h-4.8817zm-10.074-0.0257h5.8181l-0.12625 0.97846h-2.2988v6.6388h-1.131v-6.6388h-2.262zm-8.0759 4.5564h2.4566c-0.0316-0.1-1.2152-3.5193-1.2152-3.5193zm2.0148-4.5556 2.8144 7.6172h-1.3151l-0.76803-2.1042h-3.0458l-0.81011 2.1042h-1.1889l2.8564-7.6172zm-13.312-8.5e-4h5.8181l-0.13151 0.97846h-2.2883v6.6388h-1.1415v-6.6388h-2.2568zm-3.7013-1.6385-0.51027 0.85746c-0.96793-0.63126-1.5834-0.83642-2.4619-0.83642-1.2415 0-1.9937 0.61548-1.9937 1.6308 0 0.81538 0.49974 1.2783 1.6781 1.6518l1.152 0.34719c0.88902 0.26829 1.3782 0.53131 1.757 1.0153 0.41032 0.47344 0.66283 1.1415 0.66283 1.7518 0 0.94689-0.49975 1.8201-1.3835 2.4304-0.66282 0.41032-1.3309 0.59443-2.2568 0.59443-1.1889 0-2.2147-0.27354-3.2194-0.89428l0.53658-0.93111c0.83115 0.59444 1.6781 0.86272 2.6828 0.86272 0.76803 0 1.1784-0.13151 1.5939-0.44188 0.47345-0.35245 0.70491-0.84168 0.70491-1.4361 0-0.88902-0.57866-1.4992-1.7886-1.857l-1.01-0.31563c-0.89954-0.27355-1.3835-0.47871-1.7623-0.88903-0.42084-0.43662-0.626-0.99949-0.626-1.6308 0-1.7097 1.2783-2.8775 3.2299-2.8775 1.0784 0 2.0832 0.32089 3.0143 0.96794m-24.026 1.6385h1.3256l2.4882 4.1505c0.49449 0.84694 0.94163 1.7202 0.97319 1.7833 0 0-0.11573-1.0784-0.13151-2.0937l-0.0421-3.8402h1.1573v7.6172h-1.2257l-2.4461-4.0348c-0.48397-0.79434-1.0784-1.9885-1.0784-1.9885 0.0421 0.30511 0.0842 0.99423 0.0999 2.12l0.0684 3.9033h-1.1889zm-8.8697 4.5564h2.4882c-0.0579-0.0999-1.2415-3.5193-1.2415-3.5193zm2.0358-4.5556 2.8144 7.6172h-1.3046l-0.79434-2.1042h-3.0564l-0.79434 2.1042h-1.1731l2.8302-7.6172zm-12.67 0.0249h4.7555l-0.15255 0.98371h-3.4298v2.1621h2.8775v0.97845h-2.867v2.4514h3.7086v1.0153h-4.8923zm-9.2211 4.1247v2.5093h1.4203c0.54183 0 0.94689-0.0579 1.2362-0.15781 0.38928-0.17886 0.66808-0.61022 0.66808-1.0837 0-0.59443-0.40506-1.0784-0.95741-1.1889-0.23146-0.0316-0.55235-0.0789-0.92585-0.0789zm0-3.1668v2.2094h1.4046c0.84694 0 1.152-0.15255 1.394-0.60495 0.0947-0.12626 0.12626-0.30511 0.12626-0.46819 0-0.52605-0.31563-0.93111-0.85747-1.0416-0.28932-0.0736-0.44714-0.0947-0.91006-0.0947zm-1.152-0.98371h1.9622c1.3256 0 1.5571 0.0263 1.9622 0.15781 0.84168 0.29459 1.4414 0.9732 1.4414 1.7623 0 0.45241-0.21568 0.91533-0.61548 1.2362-0.26303 0.21042-0.44188 0.28407-0.88903 0.4261 0.58392 0.12099 0.79434 0.19464 1.11 0.42084 0.48397 0.33667 0.75225 0.91533 0.75225 1.5098 0 0.81012-0.57339 1.5992-1.4203 1.899-0.49449 0.18412-0.70491 0.20516-2.0884 0.20516h-2.2147zm-9.2432 4.1505v2.5093h1.4414c0.53657 0 0.93637-0.0579 1.2099-0.15781 0.39979-0.17886 0.68386-0.61022 0.68386-1.0837 0-0.59443-0.38928-1.0784-0.95741-1.1889-0.21568-0.0316-0.52079-0.0789-0.90481-0.0789zm0-3.1668v2.2094h1.4256c0.85746 0 1.1468-0.15255 1.4046-0.60495 0.0736-0.12626 0.13151-0.30511 0.13151-0.46819 0-0.52605-0.34719-0.93111-0.8785-1.0416-0.28933-0.0736-0.44188-0.0947-0.89954-0.0947zm-1.1205-0.98371h1.9359c1.3467 0 1.5624 0.0263 1.9832 0.15781 0.86272 0.29459 1.4361 0.9732 1.4361 1.7623 0 0.45241-0.23147 0.91533-0.62074 1.2362-0.26303 0.21042-0.44189 0.28407-0.88903 0.4261 0.57866 0.12099 0.80486 0.19464 1.1205 0.42084 0.46292 0.33667 0.75751 0.91533 0.75751 1.5098 0 0.81012-0.5997 1.5992-1.4466 1.899-0.505 0.18412-0.68912 0.20516-2.0937 0.20516h-2.1831zm-6.3842-2e-3h1.1783v7.6172h-1.1783zm-9.0139 0.97793v2.504h0.79959c0.83116 0 1.252-0.0947 1.5624-0.33667 0.26829-0.18938 0.43136-0.55236 0.43136-0.98898 0-0.48922-0.30511-0.8785-0.78907-1.0574-0.27881-0.0737-0.63126-0.12099-1.0731-0.12099zm-1.1678-0.97845h2.0358c1.2678 0 1.7623 0.13151 2.1989 0.40506 0.54183 0.36297 0.93111 0.97845 0.93111 1.7202 0 1.3414-0.84694 2.1095-2.2883 2.1358 0.18412 0.13151 0.29459 0.1999 0.39454 0.34719 0.2262 0.29459 0.71016 0.86273 1.1573 1.4414 0.43136 0.58392 1.1941 1.5729 1.1941 1.5729h-1.4414c-0.22094-0.41032-0.31563-0.61022-0.68386-1.131-0.56814-0.86272-1.0468-1.4361-1.4624-1.8044-0.28933-0.27354-0.50501-0.34193-0.86798-0.3998v3.3352h-1.1678zm-8.8881 4.5588h2.4777c-0.0368-0.1-1.231-3.5193-1.231-3.5193zm2.0095-4.5556 2.8144 7.6172h-1.3046l-0.77855-2.1042h-3.0616l-0.77329 2.1042h-1.1889l2.8512-7.6172zm-7.4526-1.7167-0.64178 0.77329c-0.5997-0.43136-1.1678-0.61548-1.8885-0.61548-1.1731 0-1.9832 0.59444-2.4672 1.7149-0.29985 0.67334-0.42084 1.4835-0.42084 2.6618 0 0.95741 0.0842 1.5203 0.30511 2.1252 0.51553 1.252 1.5518 1.8307 2.6986 1.8307 0.74173 0 1.3204-0.18938 1.9569-0.63126l0.63126 0.82063c-0.79433 0.53131-1.7938 0.83116-2.7775 0.83116-2.4461 0-4.119-2.12-4.119-5.1448 0-2.9722 1.7728-5.1658 4.1926-5.1658 0.96267 0 1.8359 0.29985 2.5303 0.7996m-24.446 1.7158h1.3572l2.4724 4.1505c0.51027 0.84694 0.93637 1.7202 0.98897 1.7833 0 0-0.12625-1.0784-0.12625-2.0937l-0.0579-3.8402h1.1415v7.6172h-1.2099l-2.4514-4.0348c-0.46818-0.79434-1.0521-1.9885-1.0521-1.9885 5e-3 0.30511 0.0631 0.99423 0.0789 2.12l0.0736 3.9033h-1.2152zm-8.8976 0.97603v2.504h0.76804c0.84168 0 1.2783-0.0947 1.5729-0.33667 0.2788-0.18938 0.44714-0.55236 0.44714-0.98898 0-0.48922-0.31037-0.8785-0.81012-1.0574-0.27355-0.0737-0.61548-0.12099-1.0626-0.12099zm-1.1784-0.97845h2.0516c1.2678 0 1.7465 0.13151 2.1778 0.40506 0.56288 0.36297 0.94163 0.97845 0.94163 1.7202 0 1.3414-0.84694 2.1095-2.3094 2.1358 0.2262 0.13151 0.29459 0.1999 0.42084 0.34719 0.22094 0.29459 0.69965 0.86273 1.1205 1.4414 0.4524 0.58392 1.2099 1.5729 1.2099 1.5729h-1.4308c-0.21568-0.41032-0.32615-0.61022-0.68913-1.131-0.56287-0.86272-1.0468-1.4361-1.4572-1.8044-0.29984-0.27354-0.51552-0.34193-0.85746-0.3998v3.3352h-1.1784zm-9.4095 0.0281h4.7608l-0.16308 0.98371h-3.4246v2.1621h2.867v0.97845h-2.8512v2.4514h3.7086v1.0153h-4.8975zm-10.082-0.0257h5.8286l-0.13151 0.97845h-2.2936v6.6388h-1.1205v-6.6388h-2.283zm-4.0401 0.55993-0.54183 0.8522c-0.66808-0.4261-1.3572-0.63652-2.0989-0.63652-0.96267 0-1.5939 0.41031-1.5939 1.0889 0 0.36823 0.22094 0.6786 0.70491 0.85746 0.17885 0.0999 0.24724 0.14729 0.64704 0.23146l1.0153 0.27881c0.57866 0.13151 1.1836 0.44188 1.5256 0.76803 0.35245 0.34193 0.54183 0.85746 0.54183 1.3677 0 0.79434-0.45766 1.5466-1.2204 1.978-0.53132 0.29459-1.1941 0.44714-1.9516 0.44714-0.98371 0-1.9937-0.25776-2.8196-0.71543l0.49449-0.91532c0.79433 0.43662 1.5413 0.64178 2.4146 0.64178 0.52079 0 0.88376-0.0789 1.2204-0.28407 0.36824-0.2262 0.59444-0.55761 0.59444-0.95741 0-0.5997-0.43662-0.98371-1.4887-1.2467l-1.1152-0.30511c-1.11-0.26302-1.8254-1.0468-1.8254-1.9516 0-1.3256 1.1731-2.2568 2.8144-2.2568 0.98897 0 2.0148 0.27881 2.6828 0.75752m-13.981 3.9965h2.4724c-0.0473-0.1-1.231-3.5193-1.231-3.5193zm2.0306-4.5556 2.8091 7.6172h-1.3204l-0.77855-2.1042h-3.0564l-0.78382 2.1042h-1.1941l2.8617-7.6172zm-13.324-2.3279h5.4657l-0.15782 0.9995h-4.0874v3.251h3.4141v1.031h-3.4141v3.6298h4.4083v1.0363h-5.6287zm-16.215 2.3527h4.5608l-0.16308 0.96267h-3.2247v2.1568h2.6513v0.95741h-2.6513v3.514h-1.1731zm-8.2195 0.80133c-0.72069 0-1.394 0.29985-1.6834 0.76803-0.3209 0.46293-0.44189 1.11-0.44189 2.0569 0 1.0679 0.1736 1.878 0.51553 2.4409 0.30511 0.47871 0.93111 0.76277 1.757 0.76277 0.92059 0 1.5676-0.36823 1.8412-1.0994 0.1999-0.48397 0.27355-0.93111 0.27355-1.7518 0-1.0416-0.10521-1.6834-0.37876-2.1831-0.37349-0.72069-1.0363-0.99424-1.8832-0.99424m0.0368-0.94689c1.231 0 2.12 0.46292 2.7355 1.2204 0.54709 0.6523 0.80486 1.5308 0.80486 2.7407 0 1.3151-0.1999 2.0726-0.78382 2.7618-0.63652 0.80486-1.4151 1.1626-2.6671 1.1626-1.1678 0-1.8938-0.28407-2.5303-1.0153-0.70491-0.78381-1.0205-1.6991-1.0205-2.9722 0-2.4198 1.3046-3.898 3.4614-3.898m-21.351 0.11988h1.3467l2.483 4.1505c0.49974 0.84694 0.9311 1.7202 0.96793 1.7833 0 0-0.11573-1.0784-0.13152-2.0937l-0.021-3.8402h1.1205v7.6172h-1.2152l-2.4356-4.0348c-0.4787-0.79433-1.0837-1.9885-1.0837-1.9885 0.0421 0.30511 0.0789 0.99424 0.0947 2.12l0.0842 3.9033h-1.2099zm-8.1706 0.82701c-0.69964 0-1.373 0.29984-1.6886 0.76803-0.28933 0.46292-0.41558 1.11-0.41558 2.0568 0 1.0679 0.16834 1.878 0.51027 2.4409 0.28933 0.4787 0.92585 0.76277 1.7518 0.76277 0.93111 0 1.5676-0.36824 1.8464-1.0994 0.21042-0.48396 0.27881-0.9311 0.27881-1.7517 0-1.0416-0.11573-1.6834-0.37876-2.1831-0.38927-0.72069-1.0416-0.99423-1.9043-0.99423m0.0526-0.94689c1.2152 0 2.1147 0.46292 2.7355 1.2204 0.54709 0.6523 0.81538 1.5308 0.81538 2.7407 0 1.3151-0.22095 2.0726-0.79434 2.7618-0.64178 0.80486-1.4256 1.1626-2.6776 1.1626-1.1468 0-1.8727-0.28407-2.525-1.0153-0.69965-0.78382-1.0205-1.6991-1.0205-2.9722 0-2.4198 1.3256-3.898 3.4667-3.898m-9.421 0.11798h1.1679v7.6172h-1.1679zm-10.117 2e-3h5.8286l-0.13677 0.97845h-2.2778v6.6388h-1.1415v-6.6388h-2.2725zm-8.0733 4.5564h2.4672c-0.04208-0.1-1.2204-3.5193-1.2204-3.5193zm2.0095-4.5556 2.8144 7.6172h-1.3151l-0.76803-2.1042h-3.0511l-0.80486 2.1042h-1.1731l2.8459-7.6172zm-8.128 0.55909-0.51553 0.8522c-0.68386-0.4261-1.3835-0.63652-2.1042-0.63652-0.97319 0-1.6097 0.41032-1.6097 1.0889 0 0.36823 0.23672 0.6786 0.71017 0.85746 0.17886 0.0999 0.24724 0.1473 0.63126 0.23146l1.0416 0.27881c0.58392 0.13151 1.1784 0.44188 1.5308 0.76803 0.34719 0.34194 0.54183 0.85746 0.54183 1.3677 0 0.79434-0.47344 1.5466-1.2362 1.978-0.52605 0.29459-1.1941 0.44714-1.9411 0.44714-1.0048 0-1.9779-0.25776-2.8301-0.71542l0.49449-0.91533c0.80486 0.43662 1.5518 0.64178 2.3988 0.64178 0.53657 0 0.90481-0.0789 1.2415-0.28407 0.36824-0.2262 0.58392-0.55761 0.58392-0.95741 0-0.5997-0.42084-0.98371-1.4782-1.2467l-1.1257-0.30511c-1.0994-0.26302-1.8149-1.0468-1.8149-1.9516 0-1.3256 1.1573-2.2568 2.8144-2.2568 0.98371 0 2.0148 0.27881 2.6671 0.75752m-11.4-0.56183h1.1573v7.6172h-1.1573zm-10.919 2e-3h1.3519l2.483 4.1505c0.49449 0.84694 0.92585 1.7202 0.97319 1.7833 0 0-0.11047-1.0784-0.13151-2.0937l-0.04208-3.8402h1.1363v7.6172h-1.2099l-2.4461-4.0348c-0.46292-0.79433-1.0626-1.9885-1.0626-1.9885 0.02104 0.3051 0.07365 0.99423 0.08417 2.12l0.06839 3.9033h-1.2047zm-8.8282 4.5564h2.4567c-0.04734-0.1-1.231-3.5193-1.231-3.5193zm2.0095-4.5556 2.8249 7.6172h-1.3362l-0.75225-2.1042h-3.0827l-0.77329 2.1042h-1.1889l2.8459-7.6172zm-8.2227 0.69785-0.55761 0.76804c-0.5734-0.36824-1.0258-0.60496-1.8517-0.60496-0.98897 0-1.7465 0.37876-2.0411 1.0837-0.24198 0.54709-0.35771 1.1784-0.35771 1.9306 0 1.3151 0.36297 2.1726 1.0994 2.5776 0.43662 0.2262 0.99424 0.37876 1.5203 0.37876 0.46292 0 0.93111-0.10521 1.2415-0.26303v-2.0621h-1.6676l-0.1736-0.98372h2.9669v3.6192c-0.66808 0.39453-1.5045 0.58917-2.4356 0.58917-1.2047 0-2.1095-0.37349-2.7775-1.0363-0.70491-0.71542-1.0416-1.6413-1.0416-2.9196 0-1.494 0.46818-2.5356 1.4361-3.2142 0.61548-0.43136 1.3309-0.64704 2.2094-0.64704 0.92585 0 1.6413 0.23146 2.4304 0.78381m-14.582 0.27731v2.504h0.76803c0.8522 0 1.273-0.0947 1.6045-0.33667 0.27355-0.18938 0.42084-0.55235 0.42084-0.98897 0-0.48923-0.31563-0.87851-0.81538-1.0574-0.24724-0.0737-0.61548-0.12099-1.0679-0.12099zm-1.1678-0.97846h2.0411c1.2467 0 1.7728 0.13152 2.1936 0.40506 0.55235 0.36298 0.93637 0.97845 0.93637 1.7202 0 1.3414-0.84694 2.1095-2.3304 2.1358 0.23146 0.13151 0.30511 0.1999 0.43662 0.34719 0.23146 0.29459 0.71543 0.86272 1.1205 1.4414 0.46818 0.58391 1.2152 1.5729 1.2152 1.5729h-1.4466c-0.20516-0.41032-0.31563-0.61022-0.6786-1.131-0.57866-0.86272-1.0363-1.4361-1.4572-1.8044-0.29985-0.27355-0.50501-0.34193-0.86272-0.3998v3.3352h-1.1678zm-8.5751-1.6006c-0.93637 0-1.7886 0.45241-2.1621 1.1784-0.35245 0.6523-0.49449 1.5045-0.49449 2.746 0 1.5045 0.24198 2.8354 0.626 3.4824 0.38928 0.6523 1.3256 1.0942 2.141 1.0942 0.82064 0 1.4309-0.29459 1.8622-0.8522 0.49975-0.63652 0.72595-1.4361 0.72595-3.0932 0-1.4835-0.13677-2.4777-0.47344-3.1668-0.35771-0.75226-1.0731-1.3888-2.2252-1.3888m0-0.96267c1.7307 0 2.6829 0.92585 3.151 1.6255 0.63126 0.94163 0.89428 2.1042 0.89428 3.7297 0 1.9306-0.4261 3.1247-1.4572 4.0664-0.73647 0.67334-1.494 0.94689-2.5408 0.94689-1.2204 0-2.1673-0.48923-2.8354-1.2467-0.7996-0.91007-1.2099-2.2725-1.2099-3.9927 0-3.1668 1.5255-5.129 3.998-5.129" fill="#0c1d3c"/>
 <path d="m352.47 111.69c1.0153 1.394 2.2936 2.6671 3.777 3.8349 1.4992 1.1047 3.2405 2.0779 5.2237 2.7776 1.9832 0.73647 4.2242 1.0942 6.6545 1.0942 2.525 0 4.8134-0.44188 6.8176-1.3256 2.0411-0.87325 3.7665-2.0569 5.1816-3.5456 1.4151-1.4729 2.5093-3.2405 3.2668-5.2552 0.77329-2.0411 1.1363-4.1979 1.1363-6.4915 0-3.5088-0.87851-6.2968-2.6723-8.3537-1.7991-2.0674-4.0295-3.7823-6.6966-5.1606-2.6776-1.3835-5.5604-2.6302-8.6693-3.777-3.0774-1.152-5.9496-2.5776-8.6325-4.2926-2.6671-1.7307-4.9028-3.9191-6.7019-6.5914-1.7886-2.6723-2.6776-6.2653-2.6776-10.752 0-3.2299 0.56287-6.139 1.6991-8.7798 1.1573-2.6408 2.7828-4.9133 4.9712-6.8281 2.1621-1.8938 4.7713-3.393 7.8171-4.4451 3.0616-1.0731 6.4914-1.615 10.311-1.615 3.6455 0 6.8123 0.4524 9.4742 1.3309 2.6828 0.90481 5.1553 2.2515 7.4384 4.119-0.68913 1.2888-1.252 2.6671-1.7097 4.1137-0.4524 1.4466-0.91006 3.2826-1.3625 5.4814h-1.3888c-0.37875-1.0626-0.89428-2.2252-1.5361-3.493-0.64705-1.252-1.5361-2.4198-2.6355-3.4825-1.11-1.0574-2.4198-1.9622-3.9612-2.6829-1.5098-0.71543-3.3246-1.0942-5.4762-1.0942-2.1358 0-4.0979 0.34719-5.8865 1.0363-1.8044 0.68912-3.3404 1.6571-4.6818 2.9143-1.3362 1.2678-2.362 2.767-3.0774 4.5082-0.74173 1.7465-1.0942 3.6455-1.0942 5.7076 0 3.5719 0.88376 6.3915 2.6881 8.4694 1.7991 2.0516 4.0243 3.777 6.6808 5.1921 2.6776 1.4098 5.5604 2.646 8.6746 3.777 3.0721 1.0837 5.9707 2.4356 8.6272 4.0453 2.6934 1.6045 4.908 3.6455 6.7177 6.1548 1.7833 2.5145 2.6566 5.876 2.6566 10.069 0 3.493-0.62074 6.8018-1.8675 9.9266-1.2573 3.13-3.0879 5.8497-5.4972 8.159-2.4093 2.3409-5.3604 4.119-8.8219 5.3657-3.493 1.2625-7.4489 1.899-11.868 1.899-4.745 0-8.6009-0.61022-11.52-1.8359-2.9564-1.2047-5.413-2.5987-7.4015-4.1926 0.6786-1.7412 1.1573-3.3141 1.4203-4.7344 0.27355-1.4203 0.52079-3.2405 0.74173-5.4236h1.3888c0.61548 1.352 1.4414 2.746 2.4724 4.1768m-43.183 7.8287c-1.4782 0.72595-3.2878 1.373-5.392 1.9411-2.0779 0.56813-4.4241 1.0889-7.0122 1.5413-2.5987 0.45766-5.3078 0.69438-8.117 0.69438-6.0285 0-11.584-0.87324-16.702-2.5776-5.1132-1.7097-9.5215-4.3189-13.225-7.8118-3.6929-3.5298-6.5704-7.8066-8.6798-12.883-2.0884-5.0659-3.13-10.837-3.13-17.333 0-6.4704 1.0416-12.231 3.13-17.302 2.1095-5.0606 5.0343-9.3479 8.7956-12.857 3.7928-3.514 8.3011-6.1706 13.567-8.0065 5.2552-1.8096 11.052-2.746 17.381-2.746 5.0343 0 9.6215 0.53131 13.788 1.5571 4.1295 1.0521 7.8171 2.3199 11.031 3.777-0.61548 1.0574-1.11 2.525-1.494 4.3504-0.38928 1.8412-0.68386 3.3404-0.90481 4.5609l-0.69438 0.23672c-0.77856-0.93111-1.8307-1.9411-3.2036-3.0984-1.3677-1.152-2.9722-2.2462-4.8028-3.3089-1.8254-1.0574-3.8875-1.9622-6.1706-2.6881-2.2988-0.71017-4.8134-1.0889-7.5488-1.0889-4.5135 0-8.6851 0.72595-12.525 2.1778-3.8559 1.4519-7.2016 3.6613-10.042 6.6914-2.8933 3.009-5.1185 6.8071-6.7124 11.426-1.5992 4.6082-2.404 10.079-2.404 16.392 0 6.3284 0.80486 11.794 2.404 16.407 1.5939 4.6082 3.8191 8.4115 6.7124 11.436 2.8407 2.9985 6.1864 5.2289 10.042 6.6598 3.8402 1.4466 8.0117 2.1884 12.525 2.1884 2.7355 0 5.2763-0.34719 7.5909-1.0205 2.3409-0.70491 4.4767-1.5255 6.402-2.4882 1.9516-0.95741 3.7087-1.9885 5.271-3.1037 1.5518-1.11 2.8722-2.1095 3.9559-2.9248l0.45766 0.45767-1.0363 6.7334c-0.70491 0.62073-1.778 1.2836-3.2562 2.0095m-136.27-61.195c-0.15255-4.8712-0.33667-9.7319-0.53131-14.598 3.3878 0.11047 6.7545 0.23146 10.121 0.33141 3.372 0.07365 6.786 0.12099 10.2 0.12099 3.4298 0 6.8176-0.04734 10.184-0.12099 3.3509-0.09995 6.7334-0.22094 10.163-0.33141-0.21042 1.1415-0.33667 2.2988-0.33667 3.4404 0 1.1573 0.12625 2.2988 0.33667 3.4614-2.4304-0.18412-4.6608-0.33667-6.6914-0.51027-2.0042-0.18938-4.1558-0.36298-6.3705-0.54183-2.2883-0.15782-4.7187-0.32615-7.4015-0.43662-2.6618-0.13151-5.8654-0.20516-9.6109-0.20516-0.0631 2.4567-0.16308 4.7923-0.27355 7.007-0.11047 2.2252-0.16833 4.7292-0.16833 7.5699 0 2.9827 0.0158 5.8865 0.0579 8.7377 0.0579 2.8144 0.0736 4.9607 0.0736 6.402 3.3825 0 6.3862-0.01052 9.0428-0.11047 2.6776-0.05787 5.0974-0.1736 7.3174-0.28933 2.2147-0.11047 4.261-0.22094 6.1232-0.34193 1.8675-0.11573 3.6455-0.23146 5.3026-0.38928-0.2262 1.131-0.32615 2.3199-0.32615 3.5403 0 1.1468 0.1 2.2725 0.32615 3.4246-1.9727-0.24198-4.2715-0.42084-6.9018-0.58918-2.6408-0.14203-5.2658-0.23672-7.8855-0.26302-2.6513-0.04734-5.108-0.08417-7.4436-0.13151-2.3304-0.02104-4.1768-0.04735-5.5551-0.04735 0 0.6786-0.0158 1.4203-0.0736 2.2199-0.0421 0.81012-0.0579 1.8254-0.0579 3.0406v11.342c0 4.3504 0 7.9328 0.0158 10.768 0.0421 2.8354 0.0684 4.9659 0.11573 6.4336h8.0117c2.8985 0 5.7392-0.0579 8.5273-0.19464 2.767-0.12099 5.3973-0.29459 7.8908-0.48922 2.4777-0.22094 4.6292-0.50501 6.4599-0.92585-0.15256 0.52605-0.25251 1.1205-0.29459 1.7675-0.0421 0.64178-0.0579 1.2362-0.0579 1.7623 0 1.2257 0.11573 2.2147 0.35246 2.9827-3.4298-0.11047-6.8439-0.16308-10.242-0.16308h-20.695c-3.3878 0-6.7966 0.0526-10.237 0.16308 0.19464-4.8975 0.37876-9.7267 0.53131-14.572 0.16834-4.8291 0.24725-9.753 0.24725-14.793v-19.616c0-5.0343-0.0789-9.9739-0.24725-14.856" fill="#0c1d3c"/>
 <path d="m145.91 82.49c0 38.454-31.542 69.602-70.459 69.602s-70.454-31.147-70.454-69.602c0-38.449 31.537-69.607 70.454-69.607s70.459 31.158 70.459 69.607" fill="#91d100"/>
 <path d="m125.97 41.69c4.482 5.2184 7.512 11.252 9.2164 17.759-0.26303-9.3532-3.2142-18.012-9.1322-24.882-17.554-20.432-54.383-17.581-82.237 6.3494-4.2715 3.6824-8.0854 7.6119-11.405 11.747 2.4935-2.8407 5.2605-5.5814 8.259-8.1748 27.886-23.935 66.067-25.182 85.299-2.7986" fill="#fff"/>
 <path d="m52.81 22.99c18.412-0.52605 39.58 9.3742 55.451 27.854 23.941 27.886 26.792 64.709 6.3547 82.243-17.297 14.845-45.745 11.126-68.586-7.291 23.683 20.795 55.751 24.53 75.72 7.3857 22.399-19.238 21.147-57.413-2.7986-85.304-18.349-21.379-44.746-30.495-66.14-24.887" fill="#0c1d3c"/>
 <path d="m135.19 59.39c0.54709 18.417-9.3584 39.564-27.839 55.44-27.881 23.93-64.699 26.797-82.237 6.3705-14.861-17.302-11.136-45.756 7.3016-68.597-20.821 23.683-24.561 55.724-7.3963 75.714 19.238 22.404 57.418 21.163 85.294-2.7775 21.384-18.38 30.485-44.756 24.877-66.151" fill="#fff"/>
 <path d="m35.06 32.29c5.2132-4.4819 11.257-7.5278 17.749-9.2322-9.3532 0.28407-17.996 3.2352-24.882 9.1533-20.427 17.544-17.586 54.367 6.3599 82.227 3.6771 4.2978 7.6119 8.0959 11.741 11.431-2.867-2.504-5.5919-5.2763-8.159-8.259-23.956-27.896-25.203-66.072-2.8091-85.32" fill="#0c1d3c"/>
 <g fill="#fff">
  <path d="m50.97 72.49-17.507 3.1458 16.423 7.875c-0.12099-1.0521-0.21042-2.0989-0.21042-3.1879 0-2.7197 0.46818-5.3604 1.2941-7.8329"/>
  <path d="m61.86 59.09-15.376-8.8113 7.391 16.287c2.0621-3.0458 4.8081-5.5972 7.9854-7.4752"/>
  <path d="m93.88 65.19 6.018-16.676-14.345 9.8214c3.2773 1.6571 6.1022 4.0243 8.3274 6.8544"/>
  <path d="m98.08 87.49c-1.0837 3.6245-2.9774 6.8913-5.4657 9.6057l17.891 3.0721z"/>
  <path d="m51.35 89.29-11.384 13.662 17.57-4.5293c-2.7039-2.5145-4.8081-5.6393-6.1863-9.1322"/>
  <path d="m99.08 81.49 15.561-9.0586-17.481-1.6991c1.2415 2.9617 1.9674 6.2547 1.9674 9.6688 0 0.36824-0.04734 0.72595-0.04734 1.0889"/>
  <path d="m89.98 118.59-1.3993-17.975c-3.0248 2.12-6.5072 3.5666-10.284 4.1611z"/>
  <path d="m62.35 119.99 10.653-14.924c-3.8559-0.21568-7.5173-1.3309-10.721-3.13z"/>
  <path d="m79.16 56.09-6.1863-16.813-4.7608 17.154c1.9727-0.51553 4.0453-0.8259 6.1811-0.8259 1.6413 0 3.2142 0.16308 4.766 0.48397"/>
 </g>
 <g fill="#fdbf00">
  <path d="m79.06 60.99c-1.494-0.36297-3.0458-0.57339-4.6608-0.57339-1.9148 0-3.7665 0.30511-5.5288 0.7996l5.755 15.666z"/>
  <path d="m76.93 100.19c3.5088-0.44714 6.7019-1.7886 9.4005-3.8033l-10.658-12.594z"/>
  <path d="m64.03 97.39c2.8617 1.7412 6.16 2.7881 9.6951 2.888l-0.04734-16.371z"/>
  <path d="m55.48 86.79c1.131 3.3246 3.1037 6.2442 5.6971 8.5378l10.589-12.746z"/>
  <path d="m55.67 73.49c-0.79434 2.1358-1.2467 4.4714-1.2467 6.9123 0 1.1047 0.09995 2.1515 0.26828 3.2194l16.092-2.9091z"/>
  <path d="m64.77 62.89c-3.0143 1.6571-5.5656 4.0979-7.3752 7.0333l14.293 8.1853z"/>
  <path d="m90.8 68.99c-1.9464-2.8144-4.6187-5.0816-7.7277-6.5756l-5.6919 15.776z"/>
  <path d="m94.3 82.19c0.06313-0.58918 0.09995-1.1626 0.09995-1.7833 0-2.9091-0.64178-5.7024-1.7886-8.2222l-14.477 8.4273z"/>
  <path d="m77.31 82.49 11.494 11.736c2.3409-2.4461 4.0874-5.4972 4.9449-8.885z"/>
 </g>
</svg>
